HIERARCHY
ROOT Hips
{
    OFFSET   0.000000   0.000000   0.000000
    CHANNELS 6 Xposition Yposition Zposition Zrotation Xrotation Yrotation
    JOINT Chest
    {
        OFFSET   0.000000   8.007230   0.000000
        CHANNELS 3 Zrotation Xrotation Yrotation
        JOINT Chest2
        {
            OFFSET   0.000000  22.077100   0.000000
            CHANNELS 3 Zrotation Xrotation Yrotation
            JOINT Neck
            {
                OFFSET   0.000000  23.254700   0.000000
                CHANNELS 3 Zrotation Xrotation Yrotation
                JOINT Head
                {
                    OFFSET   0.000010  14.370000   1.956610
                    CHANNELS 3 Zrotation Xrotation Yrotation
                    End Site
                    {
                        OFFSET   0.000000  19.566000   0.000000
                    }
                }
            }
            JOINT LeftCollar
            {
                OFFSET   3.911900  19.017000  -0.467063
                CHANNELS 3 Zrotation Xrotation Yrotation
                JOINT LeftShoulder
                {
                    OFFSET  10.383700   0.000000   0.000000
                    CHANNELS 3 Zrotation Xrotation Yrotation
                    JOINT LeftElbow
                    {
                        OFFSET  26.662100   0.001671   0.000522
                        CHANNELS 3 Zrotation Xrotation Yrotation
                        JOINT LeftWrist
                        {
                            OFFSET  28.869000   0.000037  -0.000114
                            CHANNELS 3 Zrotation Xrotation Yrotation
                            JOINT LeftFinger0
                            {
                                OFFSET   2.044650  -2.323450   3.252850
                                CHANNELS 3 Zrotation Xrotation Yrotation
                                JOINT LeftFinger01
                                {
                                    OFFSET   3.088140   0.000000   0.000000
                                    CHANNELS 3 Zrotation Xrotation Yrotation
                                    JOINT LeftFinger02
                                    {
                                        OFFSET   2.639460   0.000000   0.000000
                                        CHANNELS 3 Zrotation Xrotation Yrotation
                                        End Site
                                        {
                                            OFFSET   2.582190   0.000000   0.000000
                                        }
                                    }
                                }
                            }
                            JOINT LeftFinger1
                            {
                                OFFSET   8.364480   0.000000   3.252850
                                CHANNELS 3 Zrotation Xrotation Yrotation
                                JOINT LeftFinger11
                                {
                                    OFFSET   4.646930   0.000000   0.000000
                                    CHANNELS 3 Zrotation Xrotation Yrotation
                                    JOINT LeftFinger12
                                    {
                                        OFFSET   2.323470   0.000000   0.000000
                                        CHANNELS 3 Zrotation Xrotation Yrotation
                                        End Site
                                        {
                                            OFFSET   2.273050   0.000000   0.000000
                                        }
                                    }
                                }
                            }
                            JOINT LeftFinger2
                            {
                                OFFSET   8.364490   0.000016   1.078090
                                CHANNELS 3 Zrotation Xrotation Yrotation
                                JOINT LeftFinger21
                                {
                                    OFFSET   5.111620   0.000000   0.000000
                                    CHANNELS 3 Zrotation Xrotation Yrotation
                                    JOINT LeftFinger22
                                    {
                                        OFFSET   2.788150   0.000013   0.000000
                                        CHANNELS 3 Zrotation Xrotation Yrotation
                                        End Site
                                        {
                                            OFFSET   2.727660   0.000000   0.000000
                                        }
                                    }
                                }
                            }
                            JOINT LeftFinger3
                            {
                                OFFSET   7.899780   0.000016  -1.078090
                                CHANNELS 3 Zrotation Xrotation Yrotation
                                JOINT LeftFinger31
                                {
                                    OFFSET   4.646930   0.000000   0.000000
                                    CHANNELS 3 Zrotation Xrotation Yrotation
                                    JOINT LeftFinger32
                                    {
                                        OFFSET   2.323470   0.000000   0.000000
                                        CHANNELS 3 Zrotation Xrotation Yrotation
                                        End Site
                                        {
                                            OFFSET   2.273050   0.000000   0.000000
                                        }
                                    }
                                }
                            }
                            JOINT LeftFinger4
                            {
                                OFFSET   7.435080   0.000000  -3.252850
                                CHANNELS 3 Zrotation Xrotation Yrotation
                                JOINT LeftFinger41
                                {
                                    OFFSET   3.717550   0.000000   0.000000
                                    CHANNELS 3 Zrotation Xrotation Yrotation
                                    JOINT LeftFinger42
                                    {
                                        OFFSET   1.858760   0.000000   0.000000
                                        CHANNELS 3 Zrotation Xrotation Yrotation
                                        End Site
                                        {
                                            OFFSET   1.818440   0.000000   0.000000
                                        }
                                    }
                                }
                            }
                        }
                    }
                }
            }
            JOINT RightCollar
            {
                OFFSET  -3.911900  19.017000  -0.467064
                CHANNELS 3 Zrotation Xrotation Yrotation
                JOINT RightShoulder
                {
                    OFFSET -10.383700   0.000000   0.000000
                    CHANNELS 3 Zrotation Xrotation Yrotation
                    JOINT RightElbow
                    {
                        OFFSET -26.662100   0.001633   0.000260
                        CHANNELS 3 Zrotation Xrotation Yrotation
                        JOINT RightWrist
                        {
                            OFFSET -28.869000  -0.000045  -0.000080
                            CHANNELS 3 Zrotation Xrotation Yrotation
                            JOINT RightFinger0
                            {
                                OFFSET  -2.044660  -2.323490   3.252850
                                CHANNELS 3 Zrotation Xrotation Yrotation
                                JOINT RightFinger01
                                {
                                    OFFSET  -3.088140   0.000000   0.000000
                                    CHANNELS 3 Zrotation Xrotation Yrotation
                                    JOINT RightFinger02
                                    {
                                        OFFSET  -2.639450   0.000000   0.000000
                                        CHANNELS 3 Zrotation Xrotation Yrotation
                                        End Site
                                        {
                                            OFFSET  -2.582190   0.000000   0.000000
                                        }
                                    }
                                }
                            }
                            JOINT RightFinger1
                            {
                                OFFSET  -8.364480   0.000000   3.252850
                                CHANNELS 3 Zrotation Xrotation Yrotation
                                JOINT RightFinger11
                                {
                                    OFFSET  -4.646920   0.000000   0.000000
                                    CHANNELS 3 Zrotation Xrotation Yrotation
                                    JOINT RightFinger12
                                    {
                                        OFFSET  -2.323470   0.000000   0.000000
                                        CHANNELS 3 Zrotation Xrotation Yrotation
                                        End Site
                                        {
                                            OFFSET  -2.273050   0.000000   0.000000
                                        }
                                    }
                                }
                            }
                            JOINT RightFinger2
                            {
                                OFFSET  -8.364480   0.000000   1.078090
                                CHANNELS 3 Zrotation Xrotation Yrotation
                                JOINT RightFinger21
                                {
                                    OFFSET  -5.111610   0.000000   0.000000
                                    CHANNELS 3 Zrotation Xrotation Yrotation
                                    JOINT RightFinger22
                                    {
                                        OFFSET  -2.788160   0.000000   0.000000
                                        CHANNELS 3 Zrotation Xrotation Yrotation
                                        End Site
                                        {
                                            OFFSET  -2.727660   0.000000   0.000000
                                        }
                                    }
                                }
                            }
                            JOINT RightFinger3
                            {
                                OFFSET  -7.899780   0.000000  -1.078090
                                CHANNELS 3 Zrotation Xrotation Yrotation
                                JOINT RightFinger31
                                {
                                    OFFSET  -4.646930   0.000000   0.000000
                                    CHANNELS 3 Zrotation Xrotation Yrotation
                                    JOINT RightFinger32
                                    {
                                        OFFSET  -2.323470   0.000000   0.000000
                                        CHANNELS 3 Zrotation Xrotation Yrotation
                                        End Site
                                        {
                                            OFFSET  -2.273050   0.000000   0.000000
                                        }
                                    }
                                }
                            }
                            JOINT RightFinger4
                            {
                                OFFSET  -7.435090   0.000000  -3.252850
                                CHANNELS 3 Zrotation Xrotation Yrotation
                                JOINT RightFinger41
                                {
                                    OFFSET  -3.717550   0.000000   0.000000
                                    CHANNELS 3 Zrotation Xrotation Yrotation
                                    JOINT RightFinger42
                                    {
                                        OFFSET  -1.858760   0.000000   0.000000
                                        CHANNELS 3 Zrotation Xrotation Yrotation
                                        End Site
                                        {
                                            OFFSET  -1.818440   0.000000   0.000000
                                        }
                                    }
                                }
                            }
                        }
                    }
                }
            }
        }
    }
    JOINT LeftHip
    {
        OFFSET   9.782990   0.000000   0.000000
        CHANNELS 3 Zrotation Xrotation Yrotation
        JOINT LeftKnee
        {
            OFFSET  -0.000063 -41.789100   0.001657
            CHANNELS 3 Zrotation Xrotation Yrotation
            JOINT LeftAnkle
            {
                OFFSET   0.000078 -41.133200  -0.000113
                CHANNELS 3 Zrotation Xrotation Yrotation
                JOINT LeftToe
                {
                    OFFSET   0.000000  -6.358970  14.674500
                    CHANNELS 3 Zrotation Xrotation Yrotation
                    End Site
                    {
                        OFFSET   0.000000   0.000000   3.913200
                    }
                }
            }
        }
    }
    JOINT RightHip
    {
        OFFSET  -9.782990   0.000000   0.000000
        CHANNELS 3 Zrotation Xrotation Yrotation
        JOINT RightKnee
        {
            OFFSET   0.000053 -41.789200   0.000277
            CHANNELS 3 Zrotation Xrotation Yrotation
            JOINT RightAnkle
            {
                OFFSET   0.000030 -41.133200  -0.000150
                CHANNELS 3 Zrotation Xrotation Yrotation
                JOINT RightToe
                {
                    OFFSET   0.000000  -6.358960  14.674500
                    CHANNELS 3 Zrotation Xrotation Yrotation
                    End Site
                    {
                        OFFSET   0.000000   0.000000   3.913200
                    }
                }
            }
        }
    }
}
MOTION
Frames: 5
Frame Time:   0.016667
 -1.431720  89.551500  -5.100690   0.117869 -10.635300   1.450590  -0.089305   5.938030   0.554333  -0.238670  11.874900   1.127180   1.226080  -0.883248   0.018515   2.012710  -1.785410   5.142930  -6.534190  -2.079420   0.133396 -74.122100  16.588800  -0.678006  -0.228678  -9.737700 -19.909400  11.877200  -8.373390   5.457800  37.915700  31.567000 -51.495300 -34.440300   0.008242   0.005701 -12.219200  -0.002915   0.002089 -36.287800   8.262080 -11.074900 -30.334500   0.006381   0.014932 -21.245300  -0.003209   0.015466 -30.820800  -0.883265   1.479380 -46.236800  -0.003939   0.001362 -30.801300  -0.007452   0.001999 -28.787200  -0.830314   1.509690 -42.933900  -0.003311  -0.001829 -28.591300  -0.008675  -0.000068 -35.474400  -1.000140   1.403080 -53.207800   0.000932  -0.003066 -35.434000   0.001849  -0.000371  11.949800   0.554891   9.732640  67.409200  12.841800  -4.243680  -4.708260  -0.943722  18.771500 -12.910600  -7.685320  -0.358448 -37.417700  31.498100  60.827900  33.655200  -0.001110  -0.008365  11.841100  -0.000593   0.003170  44.474000  11.490900  11.455100  37.333700   0.000372   0.000772  27.270600   0.009114   0.000638  35.380800   0.267721   0.376983  53.072700  -0.003043  -0.002730  35.346400   0.005592  -0.001493  34.403900  -1.521520  -2.220350  51.658800  -0.002471  -0.001707  34.397200   0.003643  -0.000965  48.693400  -4.020300  -3.524230  73.225900   0.012926  -0.001173  48.768400  -0.000924   0.004280   0.522792  11.210800   4.561700   1.715890   0.122500   6.220820  -2.642460  -0.703500   1.174350  -0.000000   0.000000   0.000000   2.624140   9.778000   2.387950  -1.287350   4.349260  -9.747510  -0.994561  -4.992460  -6.105030   0.000000   0.000000  -0.000000
 -1.431760  89.551500  -5.083470   0.125381 -10.625500   1.434430  -0.092391   5.927940   0.554212  -0.244770  11.854700   1.127210   1.226110  -0.881828   0.018516   2.012990  -1.782280   5.154820  -6.535420  -2.069550   0.144004 -74.136000  16.564000  -0.672736  -0.220897  -9.724220 -19.893600  11.883400  -8.373400   5.457800  37.918800  31.580300 -51.516400 -34.445600   0.008235   0.005717 -12.219100  -0.002912   0.002090 -36.286700   8.265670 -11.078900 -30.334500   0.004288   0.032026 -21.245300  -0.011020   0.025474 -30.820900  -0.880740   1.475490 -46.236700  -0.004029   0.001362 -30.801300  -0.008051   0.001999 -28.787300  -0.827917   1.505740 -42.938400  -0.003359  -0.001710 -28.595500  -0.008593   0.000080 -35.474600  -0.997330   1.399370 -53.211100  -0.000577   0.000087 -35.437300  -0.000409  -0.000007  11.955500   0.567913   9.727350  67.422700  12.833900  -4.257490  -4.698750  -0.943784  18.753200 -12.902600  -7.666500  -0.367851 -37.389700  31.467300  60.826700  33.666600  -0.001101  -0.008354  11.841100  -0.000587   0.003164  44.478900  11.490900  11.454700  37.337800   0.000366   0.000758  27.274500   0.009116   0.000626  35.389500   0.256300   0.360762  53.085700  -0.003048  -0.002744  35.355000   0.005588  -0.001497  34.402500  -1.532810  -2.236860  51.655600  -0.002479  -0.001719  34.396700   0.003628  -0.000971  48.693400  -4.020390  -3.524280  73.225900   0.012928  -0.001183  48.768400  -0.000931   0.004292   0.509701  11.231200   4.566930   1.717980   0.093550   6.228510  -2.641630  -0.704040   1.180980   0.000000   0.000000  -0.000000   2.608810   9.785130   2.388140  -1.282900   4.334350  -9.759730  -0.996469  -4.978300  -6.080140  -0.000000   0.000000   0.000000
 -1.431800  89.551600  -5.054760   0.134939 -10.609600   1.407670  -0.096598   5.911610   0.554086  -0.253063  11.822000   1.127330   1.226160  -0.878559   0.018521   2.013250  -1.775810   5.176050  -6.537600  -2.054380   0.161212 -74.158100  16.525500  -0.664081  -0.208341  -9.702260 -19.868100  11.892200  -8.373410   5.457800  37.922000  31.593600 -51.537600 -34.451000   0.008225   0.005734 -12.218900  -0.002908   0.002091 -36.284600   8.271850 -11.086800 -30.334600  -0.000162   0.049119 -21.245300  -0.019663   0.035481 -30.821200  -0.875742   1.467540 -46.236600  -0.004181   0.001358 -30.801400  -0.008651   0.001998 -28.787500  -0.823181   1.497650 -42.946700  -0.003465  -0.001544 -28.602500  -0.008511   0.000286 -35.474900  -0.991751   1.391780 -53.217300  -0.005610   0.005498 -35.442800  -0.005320   0.000356  11.965100   0.588891   9.718800  67.444900  12.820900  -4.281610  -4.682910  -0.943912  18.723100 -12.890700  -7.634700  -0.381303 -37.356800  31.429200  60.834800  33.682300  -0.001086  -0.008333  11.841100  -0.000579   0.003158  44.485600  11.490900  11.454100  37.343400   0.000353   0.000719  27.279900   0.009119   0.000592  35.402500   0.244880   0.344541  53.105000  -0.003061  -0.002773  35.367900   0.005578  -0.001507  34.400700  -1.548510  -2.259740  51.652400  -0.002494  -0.001749  34.396100   0.003589  -0.000986  48.693300  -4.020570  -3.524380  73.225900   0.012935  -0.001206  48.768400  -0.000949   0.004325   0.491943  11.252900   4.575200   1.720570   0.060158   6.240480  -2.640580  -0.707193   1.192270   0.000000   0.000000   0.000000   2.586220   9.797250   2.388370  -1.275630   4.310040  -9.779070  -0.999533  -4.956130  -6.039390   0.000000   0.000000  -0.000000
 -1.429730  89.551600  -5.031830   0.135824 -10.597900   1.386530  -0.097917   5.899520   0.554213  -0.255547  11.797800   1.127690   1.226220  -0.873964   0.018530   2.013020  -1.768180   5.196180  -6.539890  -2.044430   0.174139 -74.173600  16.500300  -0.657459  -0.199163  -9.685700 -19.849800  11.896000  -8.373040   5.458980  37.921700  31.586500 -51.530300 -34.444700   0.008220   0.005685 -12.218700  -0.002916   0.002092 -36.279800   8.278590 -11.098200 -30.334600  -0.006566   0.043419 -21.245400  -0.020633   0.027466 -30.821700  -0.868374   1.455170 -46.236400  -0.004335  -0.006435 -30.801400  -0.003909  -0.002679 -28.787900  -0.816220   1.485040 -42.957400  -0.003617  -0.001471 -28.609800  -0.009253   0.000375 -35.475200  -0.983498   1.379980 -53.225300  -0.017665   0.011372 -35.448300  -0.013671  -0.002312  11.972500   0.605023   9.712200  67.462000  12.811200  -4.302570  -4.670310  -0.944146  18.699500 -12.883000  -7.608500  -0.388105 -37.347900  31.422700  60.864000  33.688000  -0.001074  -0.008310  11.840700  -0.000576   0.003170  44.488300  11.490900  11.453900  37.345700   0.000331   0.000651  27.282100   0.009123   0.000533  35.409700   0.247828   0.348613  53.115800  -0.003078  -0.002808  35.375100   0.005561  -0.001525  34.404100  -1.554880  -2.268740  51.656000  -0.002513  -0.001794  34.400100   0.003530  -0.001010  48.693200  -4.020810  -3.524510  73.232200   0.012949  -0.001240  48.768300  -0.000979   0.004375   0.485337  11.253700   4.581070   1.721490   0.057196   6.248090  -2.640200  -0.713763   1.201880  -0.000000   0.000000   0.000000   2.574830   9.807650   2.387960  -1.269960   4.291150  -9.793150  -1.001810  -4.941150  -6.007520   0.000000   0.000000   0.000000
 -1.426130  89.551600  -5.008890   0.134197 -10.587000   1.365850  -0.098277   5.888160   0.554342  -0.256221  11.775100   1.127910   1.226280  -0.868460   0.018541   2.012550  -1.758720   5.217730  -6.541840  -2.037030   0.186189 -74.188200  16.479500  -0.650909  -0.190436  -9.669850 -19.832400  11.898500  -8.372400   5.461040  37.918600  31.571600 -51.513900 -34.438400   0.008214   0.005637 -12.218600  -0.002926   0.002093 -36.274300   8.282750 -11.105700 -30.334600  -0.012483   0.032260 -21.245400  -0.020772   0.014467 -30.822000  -0.863480   1.446860 -46.236300  -0.004427  -0.017489 -30.801500   0.003321  -0.009595 -28.788100  -0.811599   1.476580 -42.964300  -0.003779  -0.001447 -28.614300  -0.009995   0.000404 -35.475200  -0.978010   1.372050 -53.230400  -0.027260   0.014990 -35.451500  -0.019369  -0.006920  11.980700   0.618538   9.706580  67.478200  12.800400  -4.326200  -4.657500  -0.944507  18.676600 -12.879100  -7.581500  -0.390844 -37.342300  31.429500  60.890900  33.689400  -0.001058  -0.008282  11.840200  -0.000574   0.003182  44.489100  11.490900  11.453800  37.346400   0.000307   0.000567  27.282800   0.009126   0.000461  35.415000   0.256713   0.361004  53.123700  -0.003101  -0.002850  35.380400   0.005539  -0.001548  34.410500  -1.556840  -2.271360  51.662000  -0.002537  -0.001852  34.406900   0.003454  -0.001042  48.693000  -4.021060  -3.524650  73.238500   0.012967  -0.001283  48.768200  -0.001016   0.004439   0.482793  11.254500   4.586440   1.722420   0.054233   6.254980  -2.639830  -0.724413   1.211630  -0.000000   0.000000   0.000000   2.566200   9.817900   2.387210  -1.264660   4.273980  -9.804510  -1.003720  -4.928430  -5.978170  -0.000000   0.000000   0.000000
